<?xml version="1.0" standalone="no"?>
<!DOCTYPE svg PUBLIC "-//W3C//DTD SVG 20010904//EN"
 "http://www.w3.org/TR/2001/REC-SVG-20010904/DTD/svg10.dtd">
<svg version="1.0" xmlns="http://www.w3.org/2000/svg"
 width="269.000000pt" height="132.000000pt" viewBox="0 0 269.000000 132.000000"
 preserveAspectRatio="xMidYMid meet">

<g transform="translate(0.000000,132.000000) scale(0.100000,-0.100000)"
fill="#000000" stroke="none">
<path d="M0 660 l0 -660 1345 0 1345 0 0 660 0 660 -1345 0 -1345 0 0 -660z
m2424 395 c18 -19 30 -93 22 -133 -4 -17 -17 -34 -31 -40 l-24 -11 24 -53 c31
-66 31 -111 3 -168 -31 -60 -109 -102 -182 -98 -47 3 -51 5 -60 33 -22 74 -18
75 -97 -33 -47 -64 -83 -104 -98 -108 -34 -10 -111 32 -125 68 -10 26 -11 26
-39 11 -16 -8 -52 -17 -81 -20 -98 -10 -176 29 -217 108 -11 22 -23 39 -28 39
-4 0 -11 -31 -15 -69 -3 -38 -8 -76 -12 -84 -14 -37 -130 -51 -172 -21 -21 15
-22 20 -16 90 6 62 4 74 -8 74 -27 0 -35 -23 -43 -110 -10 -123 -21 -172 -41
-187 -10 -7 -44 -13 -75 -13 -65 0 -89 16 -89 59 0 26 -3 28 -46 29 -25 1 -61
9 -81 17 -35 15 -52 9 -53 -17 0 -18 -49 -28 -247 -52 -247 -30 -296 -32 -317
-10 -28 27 -17 64 49 173 36 59 65 110 65 114 0 4 -18 7 -39 7 -56 0 -71 19
-71 90 0 32 3 65 6 74 8 22 54 32 234 51 85 9 182 20 216 26 88 13 112 11 131
-10 16 -19 17 -19 52 4 44 29 97 42 216 54 50 5 168 19 264 31 95 12 184 19
197 16 14 -4 26 -16 30 -31 l6 -24 39 19 c43 22 152 27 192 9 20 -9 30 -6 62
15 62 43 85 36 135 -37 14 -20 27 -37 30 -37 3 0 23 26 45 56 43 60 61 74 97
74 13 1 48 9 78 20 67 24 94 25 114 5z"/>
</g>
</svg>
